<?xml version="1.0" encoding="utf-8"?>
<!-- Generator: Adobe Illustrator 15.1.0, SVG Export Plug-In . SVG Version: 6.00 Build 0)  -->
<!DOCTYPE svg PUBLIC "-//W3C//DTD SVG 1.1//EN" "http://www.w3.org/Graphics/SVG/1.1/DTD/svg11.dtd">
<svg version="1.1" id="Layer_1" xmlns="http://www.w3.org/2000/svg" xmlns:xlink="http://www.w3.org/1999/xlink" x="0px" y="0px"
	 width="281px" height="285px" viewBox="0 0 281 285" enable-background="new 0 0 281 285" xml:space="preserve">
<g id="body">
	<path fill="#010101" stroke="#010101" stroke-width="9.6086" d="M113.433,30.168c0,13.984-10.961,25.318-24.484,25.316
		C75.426,55.479,64.46,44.14,64.46,30.155c0-13.985,10.962-25.319,24.484-25.316C102.467,4.846,113.433,16.184,113.433,30.168z"/>
	<g>
		<path fill="#DCD1C9" d="M39.651,46.68c-44.969,43.663-50.07,140.646-1.164,192.438c51.409,54.444,145.33,53.946,195.813,3.567
			c51.877-51.771,54.604-131.893,8.55-188.208C192.479-7.108,104.535-16.322,39.651,46.68z"/>
		<g>
			<path fill="none" d="M39.651,46.68c-44.969,43.663-50.07,140.646-1.164,192.438c51.409,54.444,145.33,53.946,195.813,3.567
				c51.877-51.771,54.604-131.893,8.55-188.208C192.479-7.108,104.535-16.322,39.651,46.68z"/>
			<path fill="#010101" d="M36.934,43.962C6.838,73.562-3.205,119.66,0.862,160.518c2.165,21.756,8.708,43.123,20.062,61.861
				c11.465,18.922,28.43,34.059,47.793,44.566c38.533,20.912,87.19,22.637,127.436,5.597c42.949-18.185,73.316-58.81,81.13-104.54
				c8.079-47.314-9.349-95.687-43.427-128.983c-32.693-31.943-79.326-45.709-124-35.916C82.15,9.177,57.217,24.448,36.934,43.962
				c-3.578,3.442,1.864,8.871,5.436,5.436c35.482-34.137,84.699-50.869,132.868-36.563c46.25,13.736,81.642,54.486,92.779,100.845
				c11.392,47.407-5.127,98.257-41.199,130.783c-33.293,30.018-82.76,38.23-125.342,27.153
				c-22.003-5.724-42.288-17.146-58.358-33.236c-15.779-15.8-25.755-36.354-31.091-57.858c-10.125-40.805-3.8-90.128,23.262-123.418
				c2.202-2.709,4.594-5.257,7.082-7.704C45.907,45.918,40.469,40.485,36.934,43.962z"/>
		</g>
	</g>
	<path opacity="0.22" fill="none" stroke="#010101" stroke-width="4.2158" enable-background="new    " d="M253.34,71.086
		c0,0-21.447,73.053-144.24,113.348"/>
	<path opacity="0.22" fill="none" stroke="#010101" stroke-width="4.2158" enable-background="new    " d="M50.023,37.374
		c0,0,16.015,107.296,184.965,205.785"/>
	<g>
		<circle fill="#010101" cx="36.818" cy="77.957" r="19.355"/>
	</g>
	<g>
		<circle fill="#010101" cx="237.251" cy="76.863" r="22.024"/>
	</g>
	<circle fill="#FFFFFF" cx="36.677" cy="76.608" r="16.548"/>
	<circle fill="#FFFFFF" cx="237.924" cy="76.074" r="19.217"/>
	<path opacity="0.22" fill="none" stroke="#010101" stroke-width="2.4" enable-background="new    " d="M187.23,11.758
		C173.869,50.452,127.27,52.736,71.376,85.15"/>
	<circle fill="#F7F8F8" cx="62.383" cy="43.059" r="5.072"/>
	<polygon fill="#9F9F9F" points="65.342,42.071 63.369,42.071 63.369,40.1 61.396,40.1 61.396,42.071 59.425,42.071 59.425,44.046 
		61.396,44.046 61.396,46.018 63.369,46.018 63.369,44.046 65.342,44.046 	"/>
	<circle fill="#F7F8F8" cx="68.255" cy="56.778" r="5.072"/>
	<polygon fill="#9F9F9F" points="71.213,55.79 69.24,55.79 69.24,53.819 67.268,53.819 67.268,55.79 65.296,55.79 65.296,57.765 
		67.268,57.765 67.268,59.736 69.24,59.736 69.24,57.765 71.213,57.765 	"/>
	<circle fill="#F7F8F8" cx="248.846" cy="109.625" r="5.071"/>
	<polygon fill="#9F9F9F" points="251.805,108.637 249.831,108.637 249.831,106.666 247.857,106.666 247.857,108.637 
		245.887,108.637 245.887,110.612 247.857,110.612 247.857,112.584 249.831,112.584 249.831,110.612 251.805,110.612 	"/>
	<path fill="#E54097" d="M107.625,29.171c0,10.696-8.384,19.365-18.727,19.363c-10.343-0.003-18.73-8.676-18.73-19.373
		c0-10.697,8.385-19.365,18.728-19.362C99.238,9.803,107.625,18.475,107.625,29.171z"/>
	<path fill="#AD208E" d="M99.555,29.17c0,5.887-4.771,10.657-10.656,10.655c-5.885,0-10.657-4.776-10.66-10.66
		c0-5.888,4.771-10.658,10.656-10.657C94.781,18.51,99.555,23.283,99.555,29.17z"/>
	<g>
		<path fill="#F490AF" d="M88.895,7.848c-11.386-0.002-20.613,9.54-20.613,21.314c0,11.772,9.23,21.32,20.617,21.323
			c11.385,0.003,20.612-9.539,20.612-21.312S100.278,7.853,88.895,7.848L88.895,7.848z M88.9,47.361
			c-9.646-0.002-17.494-8.166-17.494-18.199c0-4.88,1.832-9.462,5.158-12.901c3.299-3.412,7.678-5.29,12.33-5.289
			c9.646,0.004,17.493,8.169,17.493,18.2c0,4.88-1.832,9.462-5.158,12.901C97.93,45.485,93.551,47.362,88.9,47.361L88.9,47.361z"/>
	</g>
	<path fill="#F490AF" d="M103.231,19.386c0,3.882-3.143,7.027-7.024,7.026c-3.887,0-7.03-3.149-7.033-7.03
		c0-3.882,3.146-7.027,7.027-7.026C100.085,12.358,103.231,15.505,103.231,19.386z"/>
	<circle fill="#FFFFFF" cx="100.37" cy="26.965" r="3.905"/>
	<path fill="#FFFFFF" d="M101.996,34.82c0,1.424-1.154,2.577-2.581,2.577c-1.423,0-2.575-1.156-2.575-2.579
		c0-1.424,1.152-2.576,2.575-2.575C100.838,32.243,101.996,33.397,101.996,34.82z"/>
	<path fill="#E54097" d="M134.252,19.146c0,5.71-4.476,10.339-9.998,10.337s-10-4.632-10-10.343s4.476-10.339,9.998-10.338
		C129.774,8.805,134.252,13.435,134.252,19.146z"/>
	<circle fill="#AD208E" cx="124.253" cy="19.143" r="5.69"/>
	<g>
		<path fill="#F490AF" d="M124.252,7.761c-6.079-0.001-11.005,5.093-11.005,11.38c0,6.285,4.927,11.382,11.007,11.384
			c6.079,0.001,11.005-5.093,11.005-11.379S130.329,7.764,124.252,7.761L124.252,7.761z M124.254,28.857
			c-5.149-0.001-9.339-4.36-9.339-9.716c0-2.606,0.978-5.052,2.754-6.889c1.761-1.821,4.099-2.824,6.583-2.823
			c5.149,0.002,9.339,4.361,9.339,9.717c0,2.605-0.978,5.051-2.754,6.888C129.076,27.855,126.738,28.858,124.254,28.857
			L124.254,28.857z"/>
	</g>
	<circle fill="#F490AF" cx="128.154" cy="13.92" r="3.753"/>
	<circle fill="#FFFFFF" cx="130.378" cy="17.967" r="2.085"/>
	<circle fill="#FFFFFF" cx="129.87" cy="22.161" r="1.376"/>
</g>
<g id="teeth">
	<g>
		<path fill="#010101" d="M174.355,101.981c-43.021-7.701-111.664,3.068-137.524,26.602
			c-39.524,35.657,16.247,121.858,56.42,133.004c52.411,14.541,116.388,7.237,143.871-45.502
			c32.469-64.455-4.94-99.36-60.651-114.104"/>
		<g>
			<path fill="none" d="M174.355,101.981c-43.021-7.701-111.664,3.068-137.524,26.602c-39.524,35.657,16.247,121.858,56.42,133.004
				c52.411,14.541,116.388,7.237,143.871-45.502c32.469-64.455-4.94-99.36-60.651-114.104"/>
			<path fill="#010101" d="M175.788,99.106c-22.491-3.917-45.875-2.992-68.383,0.283c-21.383,3.111-43.581,8.509-62.346,19.588
				c-14.892,8.792-24.576,21.822-25.77,39.378c-1.249,18.358,5.922,36.67,14.672,52.43c9.148,16.477,21.649,31.662,36.767,42.994
				c15.058,11.287,33.858,14.645,52.219,16.477c42.724,4.264,88.239-8.146,113.104-45.316c15.824-23.653,24.02-56.616,9.717-82.75
				c-13.166-24.056-41.781-36.14-66.927-42.883c-3.38-0.906-9.646,4.035-4.737,5.351c19.539,5.24,39.437,13.162,54.014,27.673
				c13.713,13.651,18.816,31.942,16.121,50.89c-3.305,23.229-15.87,46.106-34.213,60.756
				c-17.037,13.607-38.688,19.635-60.146,21.019c-11.116,0.716-22.279-0.019-33.288-1.619c-9.442-1.374-19.371-3.146-28.102-7.137
				c-16.275-7.442-29.36-22.438-39.418-36.796c-10.987-15.68-19.566-34.055-21.424-53.284c-0.806-8.338,0.27-16.99,3.752-24.637
				c3.572-7.842,10.018-13.394,17.18-17.892c17.482-10.98,39.337-15.744,59.494-18.676c21.364-3.108,43.522-3.81,64.854-0.096
				C176.822,105.536,181.238,100.055,175.788,99.106L175.788,99.106z"/>
		</g>
	</g>
	<g>
		<path fill="#ED1B6A" d="M250.234,163.193c-5.812-31.253-35.123-50.524-72.659-60.612h-2.146
			c-43.629-7.931-113.241,3.161-139.469,27.398c-10.321,9.456-14.197,22.373-13.625,36.523l4.348,3.13
			c8.622,7.931,17.963-3.604,22.99-9.373c6.469-7.93,9.343-12.977,19.403-15.86c9.341-3.604,18.684-2.882,28.019-4.324
			c8.624-1.442,15.096-5.046,23.713-5.768c7.906-0.721,15.093-5.768,22.998-2.884c3.596,0.721,6.467,2.884,10.057,3.605
			c4.318,0,8.623-1.442,12.938-0.721c5.03,1.442,6.467,5.768,11.495,7.21c5.749,1.441,7.901,1.441,12.935,5.046
			c4.313,2.164,7.908,5.045,12.217,7.209c5.748,2.883,10.059,1.442,15.088,2.883c6.472,2.164,7.182,10.096,15.092,10.813
			c4.312,0,12.214-1.438,15.809-3.603L250.234,163.193z"/>
	</g>
	<g>
		<path fill="#ED1B6A" d="M98.567,263.236c50.975,14.76,109.201,2.759,136.183-45.146c0.402-0.733,0.743-1.446,1.124-2.178
			l-2.929-2.908c0-0.634-0.696-2.543-1.389-3.178c-11.828-13.354-41.738,21.616-55.656,19.073c-5.564-1.271-5.564-5.726-12.52-3.816
			c-4.176,0.641-7.65,3.816-11.824,4.453c-5.562,1.906-5.562-0.637-10.438-0.637c-3.475-0.637-7.651,1.271-11.128,1.906
			c-11.132,1.907-18.086-1.271-27.134-5.086c-6.953-3.178-15.303-5.086-22.255-8.268c-5.566-2.542-31.306-16.53-34.782-4.45
			c0,0-1.272,1.979-2.911,4.765C56.87,238.188,72.218,255.607,98.567,263.236z"/>
	</g>
	<g>
		<path fill="#FFFFFF" d="M88.249,157.79c6.698,2.19,16.259-6.914,17.8-13.337c1.535-8.641-2.75-23.457-11.903-26.308
			c-10.047-3.29-28.312,4.297-30.956,14.044c-3.752,13.073,11.67,23.428,22.827,25.609"/>
	</g>
	<g>
		<path fill="#FFFFFF" d="M90.08,235.423c0.705-2.8,4.232-10.5,9.167-12.601c7.054-2.801,16.222,2.101,19.042,8.398
			c4.938,8.4,0,18.897-8.463,19.602c-10.579,1.398-17.631-4.2-20.451-12.602"/>
	</g>
	<g>
		<path fill="#FFFFFF" d="M79.232,236.037c9.167-3.502,3.55-27.247-8.463-22.401c-17.366,7-2.998,25.726,8.288,22.226"/>
	</g>
	<g>
		<path fill="#FFFFFF" d="M126.639,252.798c-10.073-22.721,15.564-39.985,31.13-24.539c7.321,7.271,9.041,23.288-1.947,27.832
			C149.414,258.816,132.13,258.25,126.639,252.798"/>
	</g>
	<g>
		<path fill="#FFFFFF" d="M50.407,213.636c0-7.001,9.875-9.801,11.99-1.401c2.116,11.199-12.696,6.828-11.903,1.314"/>
	</g>
	<g>
		<path fill="#FFFFFF" d="M194.573,241.075c5.755-10.238-17.841-27.873-25.185-14.226c-10.609,19.728,17.178,26.051,24.887,14.196"
			/>
	</g>
	<g>
		<path fill="#FFFFFF" d="M196.846,228.575c-0.24-1.773,0.016-7.015,2.379-9.353c3.42-3.219,9.84-2.479,12.922,0.512
			c4.787,3.723,4.363,10.898-0.355,13.229c-5.775,3.211-11.139,1.594-14.702-2.613"/>
	</g>
	<g>
		<path fill="#FFFFFF" d="M216.494,212.062c0-7.002,9.875-9.805,11.988-1.401c2.117,11.2-12.694,6.823-11.902,1.313"/>
	</g>
	<g>
		<path fill="#FFFFFF" d="M59.668,149.918c0.314,2.627-0.19,10.368-3.735,13.762c-5.132,4.678-14.6,3.436-19.084-1.06
			c-6.985-5.614-6.186-16.212,0.844-19.543c8.613-4.61,16.496-2.085,21.666,4.21"/>
	</g>
	<g>
		<path fill="#FFFFFF" d="M184.648,158.552c-6.402,2.938-16.947-5.026-19.219-11.233c-2.518-8.405,0.034-23.613,8.801-27.48
			c9.604-4.405,28.619,1.061,32.369,10.445c5.229,12.562-8.9,24.596-19.734,28.023"/>
	</g>
	<g>
		<path fill="#FFFFFF" d="M207.768,150.477c-0.342,2.864,0.207,11.306,4.071,15.006c5.597,5.097,15.921,3.74,20.806-1.157
			c7.619-6.12,6.746-17.675-0.918-21.308c-9.391-5.026-17.982-2.271-23.621,4.59"/>
	</g>
	
		<ellipse transform="matrix(-0.8929 0.4502 -0.4502 -0.8929 153.6283 224.6293)" fill="#F7F8F8" cx="50.101" cy="130.584" rx="5.072" ry="3.111"/>
	<polygon fill="#9F9F9F" points="52.476,128.724 50.714,129.611 50.169,128.532 48.407,129.42 48.951,130.5 47.192,131.386 
		47.736,132.468 49.496,131.58 50.041,132.661 51.803,131.774 51.259,130.691 53.02,129.803 	"/>
	<ellipse fill="#F7F8F8" cx="170.956" cy="251.875" rx="5.071" ry="3.645"/>
	<polygon fill="#9F9F9F" points="173.912,251.166 171.939,251.166 171.939,249.75 169.969,249.75 169.969,251.166 167.996,251.166 
		167.996,252.583 169.969,252.583 169.969,254 171.939,254 171.939,252.583 173.912,252.583 	"/>
</g>
</svg>
